<svg width="99" height="57" viewBox="0 0 99 57" fill="none" xmlns="http://www.w3.org/2000/svg"><path d="M.871 44V.653h3.576V40.75h8.67V44H.87zM26.124 44.38c-2.492 0-4.298-.543-5.418-1.626-1.084-1.084-1.644-2.89-1.68-5.419-.108-12.209-.108-24.436 0-36.682h3.63c-.072 6.105-.126 12.318-.162 18.64 0 6.285.036 12.48.108 18.584 0 2.276 1.174 3.414 3.522 3.414 2.312 0 3.468-1.138 3.468-3.414.036-6.104.054-12.3.054-18.585.036-6.321.018-12.534-.054-18.639h3.576c.108 12.246.108 24.473 0 36.682-.036 2.529-.596 4.335-1.68 5.419-1.083 1.084-2.872 1.625-5.364 1.625zM39.949 44l5.147-22.107L40.219.653h3.468L45.8 10.57l1.572 9.861h.596l1.517-9.861L51.598.653h3.468l-4.714 21.349L55.337 44h-3.522l-2.33-10.728-1.517-9.59h-.596l-1.572 9.59L43.47 44H39.95zM68.942 44.38c-2.492 0-4.28-.543-5.364-1.626-1.084-1.12-1.68-2.962-1.788-5.527a204.888 204.888 0 01-.054-4.389c0-1.3.054-2.8.162-4.497h3.414c-.072 1.59-.108 3.179-.108 4.768 0 1.59.036 3.143.108 4.66.072 1.228.38 2.131.921 2.71.542.54 1.445.812 2.71.812 1.191 0 2.04-.271 2.546-.813.542-.578.849-1.48.921-2.71.072-1.01.108-1.914.108-2.708 0-.795-.018-1.608-.054-2.439 0-.867-.018-1.86-.054-2.98-.036-1.372-.235-2.51-.596-3.413-.325-.903-.993-1.481-2.005-1.734l-2.871-.759c-2.096-.505-3.468-1.427-4.119-2.763-.65-1.337-1.01-3.251-1.083-5.744a127.213 127.213 0 01-.054-3.846l.108-4.01c.036-2.529.596-4.335 1.68-5.418 1.083-1.12 2.908-1.68 5.472-1.68 2.384 0 4.1.56 5.148 1.68 1.083 1.083 1.68 2.89 1.788 5.418v3.739c0 1.444-.018 2.962-.054 4.551h-3.468a182.326 182.326 0 000-8.832c-.072-2.312-1.228-3.468-3.468-3.468-1.228 0-2.113.29-2.655.867-.506.542-.795 1.409-.867 2.601a81.4 81.4 0 000 8.398c.036 1.626.217 2.836.542 3.63.361.796 1.084 1.337 2.167 1.626l2.655.65c2.132.506 3.522 1.445 4.172 2.818.687 1.373 1.066 3.27 1.138 5.69.036 1.12.054 2.058.054 2.817 0 .758-.017 1.499-.054 2.221v2.547c-.108 2.565-.704 4.407-1.788 5.527-1.083 1.084-2.853 1.625-5.31 1.625zM82.394 44L87.054.653h6.718L98.378 44h-3.684l-1.138-12.57h-6.34L86.078 44h-3.684zm5.147-15.822h5.69l-.867-9.482-1.192-14.792h-1.518L88.408 18.75l-.867 9.428zM4.45 51.976c.434.094.768.283 1.001.567.24.277.36.636.36 1.077 0 .567-.212 1.005-.634 1.314-.416.303-1.033.454-1.852.454H.28v-6.616h2.855c.737 0 1.307.148 1.71.444.41.296.615.715.615 1.257 0 .366-.092.677-.274.936a1.597 1.597 0 01-.738.567zM.98 49.348v2.4h2.108c.536 0 .949-.1 1.238-.301.29-.208.435-.508.435-.898 0-.391-.145-.687-.435-.889-.29-.208-.702-.312-1.238-.312H.981zm2.335 5.463c.592 0 1.04-.1 1.342-.302.303-.202.454-.517.454-.945 0-.826-.599-1.239-1.796-1.239H.981v2.486h2.334zM14.684 54.783v.605h-4.678v-6.616h4.537v.605h-3.838v2.353h3.422v.596h-3.422v2.457h3.98zM20.752 55.444c-.492 0-.964-.078-1.418-.236-.447-.157-.794-.365-1.04-.624l.274-.538c.24.24.558.434.955.586.397.145.806.217 1.229.217.592 0 1.036-.107 1.332-.321.297-.22.445-.504.445-.851 0-.265-.082-.476-.246-.633a1.532 1.532 0 00-.586-.36 8.637 8.637 0 00-.974-.283 11.001 11.001 0 01-1.19-.36 2.04 2.04 0 01-.766-.538c-.208-.24-.312-.564-.312-.973 0-.334.088-.637.265-.908.176-.277.447-.497.813-.661.365-.164.819-.246 1.36-.246.378 0 .747.054 1.106.16.366.102.68.243.945.426l-.236.558a3.147 3.147 0 00-.888-.407 3.214 3.214 0 00-.927-.142c-.58 0-1.017.114-1.313.34-.29.221-.435.508-.435.86 0 .265.079.48.236.644.164.157.366.28.605.368.246.082.573.173.983.274.485.12.876.24 1.172.36.303.113.558.29.766.529.208.233.311.551.311.954 0 .334-.09.64-.274.917-.176.271-.45.488-.822.652-.372.158-.828.236-1.37.236zM28.535 49.377H26.21v-.605h5.35v.605h-2.326v6.01h-.7v-6.01zM47.012 55.945a1.983 1.983 0 01-.719.558 1.998 1.998 0 01-.888.199 2.27 2.27 0 01-1.115-.294c-.347-.189-.738-.51-1.172-.964a3.583 3.583 0 01-1.72-.472 3.227 3.227 0 01-1.2-1.2 3.332 3.332 0 01-.436-1.692c0-.637.148-1.21.445-1.72a3.22 3.22 0 011.247-1.2 3.63 3.63 0 011.786-.445c.656 0 1.245.145 1.768.435a3.2 3.2 0 011.248 1.21 3.31 3.31 0 01.453 1.72c0 .554-.116 1.065-.35 1.53-.226.46-.548.845-.964 1.154-.41.309-.882.514-1.417.614.485.51.964.766 1.436.766.492 0 .91-.202 1.257-.605l.34.406zm-6.56-3.865c0 .516.12.983.36 1.399.245.415.58.743 1.001.983.429.239.905.359 1.427.359.523 0 .996-.12 1.418-.36a2.61 2.61 0 00.993-.982c.24-.416.359-.883.359-1.4 0-.516-.12-.982-.36-1.398a2.61 2.61 0 00-.992-.983 2.823 2.823 0 00-1.418-.36c-.522 0-.998.12-1.427.36-.422.24-.756.567-1.002.983-.239.416-.359.882-.359 1.399zM53.541 55.444c-.857 0-1.524-.245-2.003-.737-.48-.491-.719-1.206-.719-2.145v-3.79h.7v3.761c0 .77.173 1.343.52 1.72.346.379.847.568 1.502.568.662 0 1.166-.19 1.513-.567.346-.378.52-.952.52-1.72v-3.762h.68v3.79c0 .939-.24 1.654-.718 2.145-.473.492-1.138.737-1.995.737zM64.971 53.62h-3.686l-.794 1.768h-.727l3.024-6.616h.69l3.024 6.616h-.737l-.794-1.768zm-.255-.567L63.128 49.5l-1.587 3.553h3.175zM70.196 48.772h.7v6.01H74.6v.606h-4.404v-6.616zM78.361 48.772h.7v6.616h-.7v-6.616zM85.097 49.377h-2.325v-.605h5.35v.605h-2.325v6.01h-.7v-6.01zM94.06 53.1v2.288h-.69V53.1l-2.646-4.328h.747l2.268 3.714 2.269-3.714h.7L94.06 53.1z" fill="#212121"/></svg>